<svg xmlns="http://www.w3.org/2000/svg" viewBox="0 0 289.03 241.88"><defs><style>.cls-1{fill:#211915;}.cls-2{fill:#c65358;}.cls-3{fill:#9a999e;opacity:0.2;}</style></defs><title>citas</title><g id="Layer_2" data-name="Layer 2"><g id="Capa_1" data-name="Capa 1"><path class="cls-1" d="M144.48,0A74.28,74.28,0,0,0,70.31,74.2c0,39.34,67.31,131.33,70.16,135.24l2.67,3.66a1.81,1.81,0,0,0,1.34.67,1.68,1.68,0,0,0,1.34-.67l2.67-3.66c2.89-3.91,70.19-95.9,70.19-135.24A74.27,74.27,0,0,0,144.48,0"/><polygon class="cls-2" points="177.9 66.37 156.46 66.37 156.46 45.6 137.89 45.6 137.89 66.37 117.83 66.37 117.83 84.92 137.89 84.92 137.89 105.68 156.46 105.68 156.46 84.92 177.9 84.92 177.9 66.37"/><path class="cls-3" d="M289,213.74c0,15.54-64.71,28.14-144.55,28.14S0,229.28,0,213.74s64.69-28.1,144.48-28.1S289,198.19,289,213.74"/></g></g></svg>