<svg xmlns="http://www.w3.org/2000/svg" viewBox="0 0 213.19 216.86"><defs><style>.cls-1{fill-rule:evenodd;}</style></defs><title>cuenta</title><g id="Layer_2" data-name="Layer 2"><g id="Capa_1" data-name="Capa 1"><path class="cls-1" d="M106.66,0c31.88-.42,58.91,25.55,59.62,58.07a59.61,59.61,0,0,1-59.55,61C74,119.26,46.81,92.14,47,59.43,47.22,25.72,74.71-.38,106.66,0Z"/><path class="cls-1" d="M213.17,192.35a65.29,65.29,0,0,0-14.49-43.15,63.35,63.35,0,0,0-10-10.1h0l-.12-.1c-.61-.48-1.23-.93-1.85-1.39-.4-.3-.8-.6-1.2-.88l-.24-.18c-26.35-19.08-33.12-8.9-33.12-8.9a110.33,110.33,0,0,1-12.37,7.2,78.64,78.64,0,0,1-27.52,6.74,79.74,79.74,0,0,1-41-8,21.16,21.16,0,0,0-12-7c-.54-.29-1.12-.6-1.76-1,0,.23-.11.45-.16.68-8.52-.89-17.45,3-24.19,7.06a64.44,64.44,0,0,0-11,8l-.16.14h0a74.25,74.25,0,0,0-10.45,11.77C-2.4,172.68.11,194.94.28,216.86H213.15C213.15,208.48,213,200.41,213.17,192.35Z"/></g></g></svg>