<svg xmlns="http://www.w3.org/2000/svg" viewBox="0 0 217.57 192.27"><defs><style>.cls-1{fill-rule:evenodd;}</style></defs><title>favoritos</title><g id="Layer_2" data-name="Layer 2"><g id="Capa_1" data-name="Capa 1"><path class="cls-1" d="M109.15,192.27c-1.05-1-1.62-1.44-2.14-2q-44.94-44.92-89.86-89.88C-14.67,68.45-.09,14.09,43.41,2.17a58.85,58.85,0,0,1,63.65,23.09c.51.73,1,1.44,1.62,2.22,2-2.55,3.74-5.14,5.84-7.39C131,2.45,151.22-4,174.46,2.48,197.9,9,212.18,25.2,216.53,49.11c3.55,19.54-2,37-16.06,51.13C172.07,129,143.4,157.41,114.86,186,112.89,188,111.1,190.12,109.15,192.27Z"/></g></g></svg>