<svg xmlns="http://www.w3.org/2000/svg" viewBox="0 0 141.23 242.72"><defs><style>.cls-1{fill:none;stroke:#211915;stroke-miterlimit:10;fill-rule:evenodd;}</style></defs><title>laboratorio</title><g id="Layer_2" data-name="Layer 2"><g id="Capa_1" data-name="Capa 1"><path class="cls-1" d="M138.47,154.92c-6.45-24.4-21.89-40.79-45.84-49-3.7-1.28-4.34-2.1-4.36-5.85,0-4.69-.09-9.37,0-14,0-1.64-.48-2.06-2-2-2,.12-4.1,0-6.13,0-.88,0-1.36-.2-1.53-1.22-1-6.14-.37-6.9,5.69-6.89a22.25,22.25,0,0,1,2.31,0c1.12.09,1.72-.18,1.67-1.49-.09-2.64-.08-5.29,0-7.92,0-1.13-.39-1.49-1.48-1.45-2,.06-3.93-.11-5.87.06s-2.52-.48-2.27-2.27a11.15,11.15,0,0,0,0-1.53c0-4.34,0-4.34,4.42-4.33,5.2,0,5.2,0,5.2-5.13,0-5.71,0-5.71-5.66-5.7-4,0-4,0-4-3.86,0-4.23,0-4.23,4.27-4.23,5.34,0,5.34,0,5.35-5.47s0-5.37-5.46-5.37c-4.2,0-4.2,0-4.17-4.18,0-3.89,0-3.88,3.84-3.9,1.8,0,4,.58,5.23-.26s.4-3.29.55-5c0-.34,0-.68.1-1a3.8,3.8,0,0,1,3.33-3.37c1.27-.26,3,.7,3.72-.66.55-1.1.16-2.67.17-4a17.34,17.34,0,0,1,0-2C95.83,1.12,95.13.69,93.46.7,85.88.8,78.3.75,70.72.75q-9.19,0-18.4,0c-2.12,0-5-.74-6.18.32-1.43,1.25-.23,4.17-.5,6.33-.25,1.9.55,2.21,2.26,2.18,3.8-.09,5,1.17,5,5.06q0,42.92,0,85.85a5,5,0,0,1-3.65,5.18c-2.88,1-5.71,2.13-8.5,3.42-28.74,13.19-45.34,46.1-38.82,77a70.11,70.11,0,0,0,84,54.45C124.18,232.11,148.49,192.78,138.47,154.92ZM56.14,143.85a1.55,1.55,0,0,1-.55-.18ZM70.46,95.74A8.26,8.26,0,0,1,79,104.23a8.38,8.38,0,0,1-8.39,8.41A8.66,8.66,0,0,1,62.08,104,8.53,8.53,0,0,1,70.46,95.74Zm4.83,134.19A58,58,0,0,1,21.87,140.6c.94-1.5,1.62-1.67,3.15-.79a41.55,41.55,0,0,0,28.06,5c1.84-.29,2.48.27,3.32,1.66a12.59,12.59,0,0,0,13.5,6.15,12.8,12.8,0,0,0,9.8-10.26,10,10,0,0,0-.43-5.54c-.52-1.34-.08-1.76,1.16-2.11a49.27,49.27,0,0,1,36.92,3.68,4,4,0,0,1,1.52,1.65,59.69,59.69,0,0,1,9.67,32.51C128.59,202.33,105.06,227.7,75.29,229.93Z"/></g></g></svg>