<svg xmlns="http://www.w3.org/2000/svg" viewBox="0 0 138.2 151.86"><defs><style>.cls-1{fill:#17bebb;}.cls-2,.cls-3{fill:none;stroke:#17bebb;stroke-miterlimit:10;}.cls-2{stroke-width:7px;}.cls-3{stroke-width:13px;}.cls-4{fill:#fff;opacity:0.2;}.cls-5{fill:#c7565c;}</style></defs><title>logo</title><g id="Layer_2" data-name="Layer 2"><g id="Capa_1" data-name="Capa 1"><path class="cls-1" d="M44.22,9.17A9.18,9.18,0,1,1,35,0a9.18,9.18,0,0,1,9.18,9.17"/><path class="cls-2" d="M27.17,9.17S-10.88,6.73,9.5,73.69"/><path class="cls-1" d="M55.74,9.17A9.18,9.18,0,1,0,64.92,0a9.18,9.18,0,0,0-9.18,9.17"/><path class="cls-2" d="M72.79,9.17s38-2.44,17.66,64.52"/><path class="cls-2" d="M50.54,107.83s-7.95,38.15,18,37.29"/><path class="cls-2" d="M122.92,104.16s-6.35-15.45-21.4-11.61c-9.09,2.32-13.76,8-14.42,33.17-.24,9.4-7.85,20-19.06,19.42"/><path class="cls-3" d="M8.39,69.58c9.74,40.24,42.15,38.25,42.15,38.25"/><path class="cls-3" d="M91.57,69.58c-9.74,40.24-42.37,38.25-42.37,38.25"/><path class="cls-4" d="M134.34,149.63c0,1-5.57,2-12.72,2.19-7,.21-12.51-.42-12.51-1.42s5.55-2,12.51-2.17C128.77,148,134.34,148.64,134.34,149.63Z"/><path class="cls-1" d="M121.8,102.36a16.42,16.42,0,0,0-16.39,16.4c0,8.69,14.87,29,15.5,29.88l.59.81a.4.4,0,0,0,.3.15.38.38,0,0,0,.3-.15l.59-.81c.63-.86,15.51-21.19,15.51-29.88a16.42,16.42,0,0,0-16.4-16.4"/><polygon class="cls-5" points="129.19 117.03 124.45 117.03 124.45 112.44 120.35 112.44 120.35 117.03 115.91 117.03 115.91 121.13 120.35 121.13 120.35 125.72 124.45 125.72 124.45 121.13 129.19 121.13 129.19 117.03"/></g></g></svg>