<svg xmlns="http://www.w3.org/2000/svg" viewBox="0 0 215.38 219.08"><defs><style>.cls-1{fill:none;stroke:#211915;stroke-miterlimit:10;fill-rule:evenodd;}</style></defs><title>medico</title><g id="Layer_2" data-name="Layer 2"><g id="Capa_1" data-name="Capa 1"><path class="cls-1" d="M177,132.41a60,60,0,0,1,23.26,18.13,65.75,65.75,0,0,1,14.57,43.39c-.14,8.11,0,16.22,0,24.65H.78c-.17-22.05-2.7-44.42,11.35-64,7.83-10.88,17.71-19.17,30.25-24.12,1.55-.61,3.17-1,4.39-1.39.83,9.17,1.62,18,2.46,26.87A21.14,21.14,0,0,0,50,159.3c1.33,4.9,2.8,9.18-.28,14.68-3.62,6.48,1.46,14.75,8.59,16.71,6.85,1.87,14.39-2.42,16-9.14,1.9-7.71-2.45-15.08-10.22-16.3-2.87-.45-3.79-1.7-4.6-4a57,57,0,0,1-1.22-34.39c1.33.75,2.42,1.27,3.41,1.94a80.71,80.71,0,0,0,51.66,14.08c14.52-1,28.22-5.38,40.12-14,4.57-3.33,8.6-1.52,12.86-.34.66.19,1.27,2,1.21,3.1a60.26,60.26,0,0,1-1,8c-1.21,6.53-3.12,11.92-10.72,14.51-4.93,1.68-9.15,6.13-13,10-6.38,6.36-5.82,14.5-3.9,22.39.43,1.77,3.24,3.29,5.28,4.18.76.34,3.48-1.37,3.53-2.25.12-2.19,0-5.5-1.39-6.48-4.16-3-3.05-6.28-1.54-9.69,3.66-8.31,10.8-12.68,18.94-15.33,1.94-.63,5.45.42,6.86,1.95,5.38,5.87,9.18,12.64,8.32,21.12-.32,3.19-1.16,5.43-4.81,6.55-1.9.58-3.54,3.22-4.4,5.3-.33.8,2.05,3.88,2.85,3.75,2.42-.38,5.56-1.17,6.88-2.95,10.95-14.75,4.4-27.46-5.06-38.15-1.69-1.92-2-3.13-1.35-5.47C174.54,143.67,175.67,138.14,177,132.41Z"/><path class="cls-1" d="M107.75.51c32.07-.43,59.25,25.7,60,58.4a60,60,0,0,1-59.89,61.33c-32.91.19-60.25-27.08-60.06-60C48,26.36,75.63.12,107.75.51Z"/></g></g></svg>