<svg xmlns="http://www.w3.org/2000/svg" viewBox="0 0 465.41 519.01"><defs><style>.cls-1,.cls-4,.cls-5{fill:#fff;}.cls-1,.cls-2,.cls-3{stroke:#fff;stroke-miterlimit:10;}.cls-2,.cls-3{fill:none;}.cls-2{stroke-width:11px;}.cls-3{stroke-width:18px;}.cls-4{opacity:0.2;}.cls-6{fill:#c7565c;}</style></defs><title>Recurso 1</title><g id="Capa_2" data-name="Capa 2"><g id="Capa_1-2" data-name="Capa 1"><path class="cls-1" d="M144.53,31.81A31.34,31.34,0,1,1,113.19.5a31.35,31.35,0,0,1,31.34,31.31"/><path class="cls-2" d="M86.31,31.81S-43.58,23.48,26,252.09"/><path class="cls-1" d="M183.87,31.81A31.33,31.33,0,1,0,215.2.5a31.34,31.34,0,0,0-31.33,31.31"/><path class="cls-2" d="M242.08,31.81S372,23.48,302.4,252.09"/><path class="cls-2" d="M166.11,368.67S139,498.93,227.72,496"/><path class="cls-2" d="M413.24,356.15s-21.68-52.74-73.07-39.63c-31,7.9-47,27.31-49.22,113.24-.84,32.11-26.82,68.21-65.1,66.29"/><path class="cls-3" d="M22.19,238.08c33.25,137.4,143.92,130.59,143.92,130.59"/><path class="cls-3" d="M306.19,238.08C273,375.48,161.54,368.67,161.54,368.67"/><path class="cls-4" d="M452.24,511.39c0,3.41-19,6.73-43.44,7.48-23.74.73-42.72-1.42-42.72-4.83s19-6.68,42.72-7.42C433.21,505.88,452.24,508,452.24,511.39Z"/><path class="cls-5" d="M409.43,350a56,56,0,0,0-56,56c0,29.7,50.79,99.1,52.95,102l2,2.76a1.27,1.27,0,0,0,2,0l2-2.76c2.16-2.94,53-72.34,53-102a56,56,0,0,0-56-56"/><polygon class="cls-6" points="434.65 400.08 418.48 400.08 418.48 384.41 404.47 384.41 404.47 400.08 389.32 400.08 389.32 414.09 404.47 414.09 404.47 429.76 418.48 429.76 418.48 414.09 434.65 414.09 434.65 400.08"/></g></g></svg>